<svg width="120" height="20" viewBox="0 0 120 20" xmlns="http://www.w3.org/2000/svg"><title>logo</title><g fill="#FFF" fill-rule="evenodd"><path d="M4.34 9.787a4.132 4.132 0 0 0-.082.815c0 2.609 2.444 4.722 5.46 4.722 3.015 0 5.46-2.113 5.46-4.722 0-.278-.03-.55-.083-.815-1.133-1.162-3.117-1.935-5.377-1.935s-4.245.773-5.378 1.935zm7.964 1.227a2.586 2.586 0 1 1-4.968-1.009A1.077 1.077 0 0 0 9.43 9.65c0-.47-.302-.87-.722-1.018a2.587 2.587 0 0 1 3.595 2.382z"/><path d="M9.718 0C3.49 2.277-.969 9.38.181 16.554c0 0 3.722 3.348 9.537 3.348 5.814 0 9.536-3.348 9.536-3.348C20.404 9.38 15.945 2.277 9.718 0zm8.213 15.756s-1.365 1.158-3.424 1.801a.308.308 0 0 1-.252-.021c-.12-.07-.153-.211-.081-.335a.41.41 0 0 1 .077-.086 5.44 5.44 0 0 0 1.247-1.5 5.499 5.499 0 0 0 .71-3.34l-.001-.002a6.595 6.595 0 0 1-3.184 4.465c-3.667 2.117-8.288 1.56-11.518-.982 0 0-.32-1.761.152-3.866a.307.307 0 0 1 .145-.207c.12-.07.258-.028.33.096.012.02.03.07.036.11.105.631.336 1.242.675 1.83a5.502 5.502 0 0 0 2.537 2.285 6.595 6.595 0 0 1-1.386-1.685 6.577 6.577 0 0 1-.884-3.489c.08-4.157 2.846-7.796 6.608-9.3 0 0 1.685.604 3.272 2.065.061.056.108.134.108.23-.001.139-.106.237-.25.237a.416.416 0 0 1-.113-.023 5.427 5.427 0 0 0-1.922-.331 5.496 5.496 0 0 0-3.247 1.055l-.001.001a6.618 6.618 0 0 1 5.647.638c3.54 2.153 5.296 6.356 4.72 10.354zM26.224 15.906h-2.74V4.63h2.74v11.276zM37.341 5.053l-.194 2.387c-.743-.471-1.639-.707-2.687-.707-1.05 0-1.927.327-2.634.981-.707.654-1.06 1.505-1.06 2.554 0 1.05.358 1.897 1.078 2.545.718.648 1.62.972 2.704.972 1.167 0 2.092-.223 2.775-.671l-.23 2.457c-.684.4-1.668.601-2.952.601a6.55 6.55 0 0 1-2.218-.39 6.682 6.682 0 0 1-1.971-1.104c-.589-.477-1.064-1.099-1.422-1.865-.36-.766-.54-1.613-.54-2.545 0-1.237.312-2.315.937-3.234.625-.92 1.393-1.594 2.307-2.024a6.74 6.74 0 0 1 2.907-.645c1.344 0 2.41.229 3.2.688zM50.614 10.25c0 1.756-.604 3.181-1.811 4.277-1.208 1.096-2.631 1.645-4.269 1.645-1.626 0-3.043-.549-4.25-1.645-1.208-1.096-1.812-2.521-1.812-4.277 0-1.732.604-3.146 1.811-4.242 1.208-1.096 2.625-1.644 4.251-1.644 1.049 0 2.033.236 2.952.708.92.47 1.67 1.163 2.253 2.077.583.912.875 1.946.875 3.101zm-2.775 0c0-1.013-.33-1.847-.99-2.5-.66-.654-1.43-.982-2.315-.982-.884 0-1.652.327-2.306.981-.655.654-.981 1.488-.981 2.501 0 1.025.326 1.865.981 2.519.654.653 1.422.981 2.306.981.884 0 1.655-.327 2.315-.981.66-.654.99-1.494.99-2.519zM62.793 16.03h-1.379l-4.384-4.808a54.971 54.971 0 0 1-2.103-2.474l-.035.018c.035.802.053 1.59.053 2.368v4.773h-2.74V4.63h2.21l3.817 4.207a38.238 38.238 0 0 1 1.839 2.156l.035-.018a39.955 39.955 0 0 1-.053-2.103V4.63h2.74v11.4zM71.47 6.875h-3.994v2.244h3.288v2.28h-3.288v4.507h-2.739V4.63h6.734v2.245zM75.624 15.906h-2.74V4.63h2.74v11.276zM88.332 16.03h-1.379l-4.383-4.808a54.971 54.971 0 0 1-2.104-2.474l-.035.018c.035.802.053 1.59.053 2.368v4.773h-2.74V4.63h2.21l3.818 4.207a38.254 38.254 0 0 1 1.838 2.156l.035-.018a40.266 40.266 0 0 1-.053-2.103V4.63h2.74v11.4zM98.362 6.168c1.173 1.024 1.76 2.392 1.76 4.1 0 1.709-.587 3.075-1.76 4.1-1.172 1.025-2.601 1.538-4.286 1.538h-3.8V4.63h3.8c1.685 0 3.114.512 4.286 1.538zm-2.014 6.53c.689-.571 1.033-1.38 1.033-2.43 0-1.049-.345-1.859-1.033-2.43-.69-.571-1.553-.858-2.59-.858h-.848v6.575h.848c1.037 0 1.9-.285 2.59-.857zM108.781 15.906h-7.07V4.63h6.576v2.245h-3.836v2.244h3.128v2.28h-3.128v2.263h4.33v2.244zM119.81 15.906h-3.058l-3.04-4.436h-.971v4.436h-2.634V4.63h4.206c1.001 0 1.859.312 2.572.936.713.625 1.069 1.45 1.069 2.475 0 .636-.165 1.208-.495 1.715-.33.506-.742.877-1.237 1.113l3.588 5.037zm-4.49-7.865c0-.4-.138-.71-.415-.928a1.563 1.563 0 0 0-.998-.327h-1.166v2.528h1.166c.388 0 .721-.109.998-.327.277-.218.416-.534.416-.946z"/></g></svg>